<svg width="112" height="124" viewBox="0 0 112 124" fill="none" xmlns="http://www.w3.org/2000/svg">
<path d="M109.446 0C109.115 0.56 108.827 1.116 108.591 1.614C108.332 2.158 108.215 2.601 108.118 3.006C107.841 3.021 107.517 2.971 107.134 2.85C106.991 2.682 106.906 2.379 106.772 2.212C106.323 2.738 105.294 3.273 104.881 3.842C104.812 3.53 104.845 3.255 104.763 2.946C103.766 3.428 102.75 3.322 101.929 2.534C101.613 2.542 100.836 3.059 100.605 3.196C100.333 2.998 100.262 2.524 99.959 2.373C99.959 2.728 99.893 3.182 99.917 3.509C99.951 3.528 98.975 2.843 98.993 2.791C98.201 2.875 97.527 2.721 96.862 2.777C96.696 2.93 96.634 3.126 96.677 3.361C96.464 3.156 96.28 2.936 96.075 2.677C96.154 3.275 95.993 3.919 96.058 4.493C94.55 4.041 93.951 2.699 92.585 1.7C91.427 3.257 87.323 3.173 85.831 2.942C85.637 3.241 85.853 3.384 85.523 3.521C85.467 3.331 85.416 3.136 85.369 2.942C84.772 3.003 84.317 3.273 83.543 3.174C83.633 3.182 83.327 2.598 83.205 2.536C82.731 2.795 82.323 3.034 81.937 3.456C81.857 3.232 82.024 2.766 81.842 2.604C81.623 2.666 81.129 3.137 80.974 3.118C80.123 2.115 78.775 2.543 77.998 3.762C77.956 3.448 77.929 2.914 77.949 2.617C77.629 3.135 77.006 3.645 76.794 4.171C76.682 3.818 76.654 3.303 76.657 2.939C76.348 3.205 75.805 3.575 75.495 3.842C75.497 3.484 75.483 2.96 75.383 2.608C74.312 3.813 74.198 3.194 73.438 2.961C71.28 2.906 67.251 2.598 65.484 3.521C65.328 3.391 65.396 2.813 65.356 2.615C64.978 2.659 64.883 3.096 64.523 3.187C64.371 2.635 64.111 2.265 63.815 1.896C61.164 3.067 58.751 3.027 56.129 2.868C56.236 2.877 55.827 2.305 55.821 2.3C55.604 2.726 55.217 3.055 55.015 3.528C54.655 3.06 54.121 3.02 53.786 2.38C53.63 2.629 53.507 3.195 53.409 3.518C52.954 3.489 52.925 2.908 52.577 2.937C52.236 3.3 52.394 3.624 51.866 3.929C51.662 3.582 51.213 3.08 50.955 2.673C50.99 3.235 50.784 3.957 50.841 4.536C50.631 4.069 49.815 3.471 49.509 2.948C48.094 3.358 46.198 3.034 44.748 3.526C44.685 3.053 44.377 2.67 44.449 2.019C44.242 3.082 43.644 3.249 43.122 3.922C42.807 3.789 42.39 3.302 42.163 3.02C42.046 3.038 41.936 3.763 41.777 3.869C41.568 3.364 41.08 2.799 40.953 2.084C41.006 2.558 40.816 3.298 40.824 3.802C40.485 3.463 39.923 3.03 39.651 2.701C39.592 2.862 39.552 3.027 39.533 3.199C39.274 2.841 38.559 2.345 38.208 1.978C36.562 2.988 34.647 3.37 32.846 4.489C32.815 4.3 32.785 4.112 32.753 3.924C31.785 4.366 31.044 5.339 29.867 5.787C29.537 4.928 28.974 4.871 28.886 3.914C27.722 3.78 26.286 3.928 25.106 4.148C25.132 3.59 24.901 2.82 24.985 2.285C24.161 4.735 21.902 3.547 20.61 5.77C20.504 5.017 19.928 4.382 19.818 3.584C19.176 3.784 18.898 3.584 18.348 3.834C18.09 3.508 17.909 3.181 17.624 2.864C17.154 2.704 17.391 3.414 17.317 3.448C17.128 3.377 16.985 2.74 16.726 2.607C16.628 3.032 16.486 3.627 16.418 3.849C16.364 3.445 16.282 3.214 15.999 3.092C15.994 2.601 15.972 2.102 15.959 1.623C15.688 2.098 14.688 3.016 14.393 3.597C14.159 2.931 13.345 1.917 13.197 1.313C12.904 2.063 12.359 2.503 12.07 3.187C11.717 3.029 11.734 2.845 11.526 2.605C11.511 2.755 11.241 3.115 11.155 3.114C11.273 2.806 11.153 2.343 11.171 2.017C11.074 2.409 10.901 3.091 10.849 3.308C10.846 3.279 10.585 2.199 10.535 2.078C10.352 2.551 9.958 3.085 9.817 3.526C9.651 3.299 9.048 2.972 8.851 2.941C8.907 3.05 8.94699 3.138 8.91299 3.115C8.75599 2.971 8.762 2.926 8.851 2.941C8.809 2.859 8.758 2.769 8.72 2.701C8.669 2.897 8.21901 3.346 8.26601 3.276C8.19601 3.135 7.85901 2.511 7.69301 2.34C7.69901 2.939 7.32401 3.889 7.29601 4.187C7.17001 3.539 6.579 2.695 6.408 2.032C6.084 2.725 5.47701 2.876 5.02701 3.511C4.60201 3.464 4.8 3.133 4.48 3.033C3.284 4.487 2.139 3.253 0.910004 2.613C-0.0229964 3.277 1.52899 4.306 0.356995 3.825C0.104995 4.006 0.716998 3.28 0.266998 3.257C0.241998 3.254 0.383995 3.829 0.356995 3.825L0 120.869L80.618 123.033C84.345 123.033 85.933 119.48 85.933 119.48L87.773 113.755L109.505 85.577V0H109.446Z" fill="#87766A"/>
<path d="M111.282 85.7101L80.7471 123.167H111.282V85.7101Z" fill="url(#paint0_linear_2001_732)"/>
<path d="M111.225 0.134033C110.894 0.695033 110.606 1.25003 110.369 1.74903C110.11 2.29103 109.993 2.73503 109.897 3.13903C109.618 3.15403 109.295 3.10603 108.911 2.98503C108.768 2.81703 108.683 2.51203 108.55 2.34503C108.1 2.87203 107.071 3.40603 106.659 3.97703C106.59 3.66403 106.622 3.38903 106.54 3.08003C105.544 3.56203 104.527 3.45803 103.705 2.67003C103.39 2.67803 102.613 3.19303 102.382 3.33103C102.11 3.13303 102.038 2.65903 101.737 2.50803C101.737 2.86403 101.67 3.31703 101.695 3.64503C101.728 3.66303 100.752 2.97803 100.771 2.92703C99.978 3.01103 99.304 2.85503 98.64 2.91303C98.473 3.06603 98.412 3.26104 98.455 3.49804C98.242 3.29204 98.057 3.07203 97.853 2.81303C97.931 3.41003 97.771 4.05303 97.835 4.62803C96.327 4.17603 95.727 2.83503 94.363 1.83503C93.205 3.39203 89.1 3.30903 87.609 3.07803C87.414 3.37503 87.631 3.51803 87.3 3.65603C87.245 3.46503 87.193 3.27203 87.147 3.07803C86.55 3.13703 86.095 3.40703 85.32 3.30703C85.41 3.31603 85.106 2.73103 84.983 2.67003C84.509 2.92803 84.101 3.16703 83.714 3.59003C83.635 3.36503 83.801 2.89903 83.62 2.73703C83.401 2.80003 82.907 3.27203 82.751 3.25303C81.901 2.24903 80.553 2.67703 79.776 3.89603C79.734 3.58303 79.706 3.04803 79.726 2.75003C79.406 3.27003 78.784 3.77903 78.572 4.30603C78.46 3.95203 78.432 3.43603 78.435 3.07203C78.125 3.33903 77.583 3.70903 77.271 3.97503C77.274 3.61903 77.261 3.09503 77.16 2.74203C76.089 3.94603 75.975 3.32903 75.215 3.09503C73.056 3.04003 69.027 2.73303 67.261 3.65503C67.105 3.52703 67.173 2.94703 67.134 2.74903C66.756 2.79303 66.662 3.23203 66.3 3.32203C66.149 2.77003 65.888 2.39903 65.592 2.03103C62.941 3.20203 60.528 3.16203 57.905 3.00303C58.012 3.01303 57.605 2.43903 57.598 2.43503C57.382 2.86003 56.995 3.19103 56.792 3.66403C56.433 3.19403 55.897 3.15403 55.563 2.51603C55.408 2.76303 55.285 3.33003 55.186 3.65303C54.732 3.62403 54.702 3.04203 54.354 3.07203C54.012 3.43503 54.17 3.75903 53.644 4.06403C53.439 3.71603 52.99 3.21603 52.732 2.80703C52.768 3.36903 52.561 4.09203 52.618 4.67203C52.408 4.20503 51.593 3.60704 51.287 3.08204C49.872 3.49204 47.976 3.16803 46.525 3.66203C46.463 3.18803 46.156 2.80403 46.227 2.15303C46.02 3.21703 45.42 3.38403 44.899 4.05603C44.583 3.92203 44.166 3.43603 43.939 3.15303C43.822 3.17303 43.712 3.89803 43.552 4.00203C43.342 3.49803 42.855 2.93403 42.728 2.21703C42.781 2.69103 42.591 3.43103 42.6 3.93703C42.261 3.59703 41.699 3.16403 41.427 2.83603C41.368 2.99603 41.328 3.16104 41.309 3.33204C41.05 2.97404 40.336 2.47903 39.985 2.11203C38.338 3.12303 36.423 3.50303 34.621 4.62403C34.591 4.43303 34.56 4.24603 34.529 4.05803C33.56 4.50203 32.82 5.47303 31.643 5.92303C31.314 5.06303 30.75 5.00503 30.661 4.04903C29.499 3.91703 28.062 4.06303 26.882 4.28303C26.908 3.72503 26.677 2.95703 26.76 2.42203C25.936 4.87203 23.677 3.68203 22.385 5.90703C22.279 5.15503 21.704 4.51803 21.593 3.72003C20.951 3.92003 20.672 3.72003 20.123 3.97203C19.864 3.64403 19.683 3.31803 19.397 3.00203C18.928 2.84103 19.166 3.55203 19.091 3.58503C18.902 3.51503 18.76 2.87703 18.501 2.74503C18.404 3.17003 18.261 3.76403 18.193 3.98803C18.139 3.58303 18.057 3.35103 17.774 3.22903C17.768 2.73803 17.746 2.24103 17.734 1.75903C17.463 2.23503 16.463 3.15404 16.167 3.73404C15.934 3.06804 15.119 2.05403 14.972 1.45203C14.678 2.20203 14.134 2.64003 13.845 3.32503C13.492 3.16803 13.509 2.98203 13.301 2.74203C13.286 2.89203 13.016 3.25203 12.93 3.25003C13.048 2.94303 12.927 2.48003 12.945 2.15303C12.848 2.54603 12.676 3.22703 12.623 3.44403C12.621 3.41503 12.36 2.33703 12.31 2.21503C12.127 2.68803 11.733 3.22103 11.592 3.66303C11.427 3.43403 10.823 3.10803 10.625 3.07603C10.682 3.18603 10.721 3.27403 10.688 3.24903C10.53 3.10603 10.537 3.06103 10.625 3.07603C10.584 2.99603 10.534 2.90403 10.495 2.83603C10.443 3.03203 9.99404 3.48303 10.04 3.41303C9.97004 3.27003 9.63403 2.64803 9.46703 2.47703C9.47403 3.07403 9.09903 4.02403 9.07103 4.32503C8.94603 3.67603 8.35403 2.83203 8.18303 2.16903C7.86003 2.86103 7.25202 3.01303 6.80302 3.64803C6.37902 3.60103 6.57503 3.27103 6.25603 3.16903C5.06003 4.62303 3.91404 3.38903 2.68604 2.74903C1.75204 3.41503 2.18003 3.31903 1.00803 2.83903C0.756026 3.01803 0.88103 3.34204 0.43103 3.31804C0.40603 3.31604 0.380027 3.31303 0.353027 3.30803L2.22903 119.189L82.392 123.168C86.119 123.168 87.707 119.615 87.707 119.615L89.548 113.889L111.28 85.711V0.134033H111.225Z" fill="#D0B882"/>
<path d="M111.282 85.7101C111.282 85.7101 86.1079 100.561 77.0659 100.561C77.0659 100.561 89.4519 115.919 87.7009 119.634L111.282 85.7101Z" fill="#B4A072"/>
<defs>
<linearGradient id="paint0_linear_2001_732" x1="97.3861" y1="105.443" x2="107.522" y2="113.739" gradientUnits="userSpaceOnUse">
<stop offset="0.0057" stop-color="#81682A"/>
<stop offset="0.1898" stop-color="#91784B"/>
<stop offset="0.3792" stop-color="#9D8465"/>
<stop offset="0.5745" stop-color="#A68D77"/>
<stop offset="0.7775" stop-color="#AB9282"/>
<stop offset="1" stop-color="#AD9486"/>
</linearGradient>
</defs>
</svg>
