<svg width="149" height="100" viewBox="0 0 149 100" fill="none" xmlns="http://www.w3.org/2000/svg">
<path d="M10.7109 93.8991C10.7109 95.3421 10.7109 96.7841 10.7109 97.5051C12.8759 98.2291 12.8759 94.6201 13.5979 93.8991C14.3209 93.8991 15.0399 95.3421 15.0399 96.0641C19.3719 93.8991 23.7009 93.1761 28.0299 91.7311C29.4729 91.0101 28.7509 94.6191 30.9179 95.3411C30.9179 93.1761 32.3619 91.7311 32.3619 89.5681C35.9689 91.7311 37.4129 95.3411 38.1329 99.6711C40.2979 96.7831 42.4619 93.8981 42.4619 90.2911C45.3499 91.0111 44.6279 95.3411 46.7919 95.3411C49.6799 96.0641 48.2359 91.7311 49.6799 90.2911C51.1229 89.5691 51.1229 93.1761 52.5659 93.1761C52.5659 92.4551 52.5659 91.7311 52.5659 91.0101C52.5659 91.7311 52.5659 92.4541 53.2889 91.7311C54.0099 91.0101 52.5659 88.8471 54.7299 89.5681C56.1729 91.0101 58.3399 93.8981 59.7829 93.8981C62.6709 94.6191 65.5549 96.0631 68.4409 96.7831C71.3289 97.5041 69.1639 93.8981 69.8859 93.1761C73.4929 96.0641 77.1029 96.0641 81.4329 96.7831C81.4329 96.0641 81.4329 95.3411 81.4329 94.6191C82.8749 93.8981 86.4849 96.7831 85.7619 93.1761C85.7619 93.8981 87.2039 94.6191 87.2039 95.3411C87.2039 94.6191 87.2039 93.1761 87.2039 92.4551C88.6479 93.8981 90.0899 95.3411 92.2559 93.8981C92.2559 94.6191 92.2559 96.0631 93.6999 96.0631C93.6999 95.3401 93.6999 94.6181 93.6999 93.8981C93.6999 95.3411 94.4219 96.0631 95.8639 96.0631C96.5849 96.0631 95.1429 93.8981 96.5849 93.8981C98.0289 94.6191 98.7519 96.7831 100.916 97.5041C100.916 96.7831 100.916 96.0641 100.916 95.3411C104.523 96.0641 106.689 99.6711 110.297 98.2281C110.297 98.2281 110.297 96.7831 110.297 96.0641C111.02 97.5041 112.464 98.2281 113.904 98.9491C113.904 97.5051 113.904 96.0641 113.904 95.3421C117.857 93.3661 121.47 95.7861 125.442 97.0461C125.755 96.7281 126.005 96.3981 126.174 96.0641C129.059 91.0111 135.553 88.8481 139.161 84.5161C139.882 87.4041 143.493 88.1261 144.213 91.7321C145.565 91.3791 146.898 90.9771 148.223 90.5571V1.44409H1.44189V97.1331C3.96089 97.8531 7.80188 95.6441 10.7109 93.8991Z" fill="#52371B"/>
<path d="M9.26901 92.456C9.26901 93.899 9.26901 95.342 9.26901 96.065C11.433 96.784 11.433 93.177 12.155 92.456C12.877 92.456 13.598 93.899 13.598 94.62C17.928 92.456 22.259 91.732 26.588 90.292C28.03 89.57 27.311 93.177 29.474 93.899C29.474 91.732 30.918 90.292 30.918 88.126C34.525 90.292 35.97 93.899 36.69 98.229C38.854 95.342 41.018 92.456 41.018 88.849C43.906 89.57 43.185 93.9 45.35 93.9C48.237 94.621 46.792 90.293 48.237 88.849C49.68 88.127 49.68 91.733 51.124 91.733C51.124 91.012 51.124 90.293 51.124 89.57C51.124 90.292 51.124 91.012 51.845 90.292C52.567 89.57 51.124 87.404 53.289 88.126C54.73 89.569 56.896 92.456 58.341 92.456C61.226 93.177 64.113 94.62 67 95.342C69.887 96.065 67.723 92.456 68.441 91.732C72.05 94.62 75.659 94.62 79.988 95.342C79.988 94.62 79.988 93.899 79.988 93.177C81.433 92.456 85.039 95.342 84.319 91.732C84.319 92.456 85.762 93.177 85.762 93.899C85.762 93.177 85.762 91.732 85.762 91.011C87.204 92.455 88.649 93.899 90.814 92.455C90.814 93.176 90.814 94.619 92.256 94.619C92.256 93.898 92.256 93.176 92.256 92.455C92.256 93.898 92.978 94.619 94.422 94.619C95.144 94.619 93.7 92.455 95.144 92.455C96.585 93.176 97.308 95.341 99.472 96.064C99.472 95.341 99.472 94.619 99.472 93.899C103.081 94.62 105.245 98.229 108.853 96.784C108.853 96.784 108.853 95.342 108.853 94.62C109.576 96.065 111.02 96.784 112.464 97.505C112.464 96.065 112.464 94.62 112.464 93.899C116.414 91.922 120.029 94.341 123.998 95.602C124.311 95.287 124.562 94.953 124.729 94.62C127.617 89.57 134.111 87.404 137.72 83.075C138.442 85.961 142.049 86.683 142.772 90.292C144.122 89.935 145.455 89.536 146.778 89.115V0H0V95.69C2.516 96.41 6.36201 94.201 9.26901 92.456Z" fill="#DAD9CA"/>
<path d="M40.4348 92.0859C40.5188 91.8519 40.5948 91.6159 40.6608 91.3789H34.2998C34.4518 91.6079 34.5948 91.8439 34.7308 92.0859H40.4348Z" fill="#85D5F6"/>
<path d="M29.8 92.0859C29.879 91.8469 29.962 91.6099 30.053 91.3789H27.707C27.775 91.6039 27.848 91.8419 27.933 92.0859H29.8Z" fill="#85D5F6"/>
<path d="M0 91.3789V92.0859H20.443C21.283 91.8439 22.121 91.6119 22.959 91.3789H0Z" fill="#85D5F6"/>
<path d="M126.661 92.0859C126.895 91.8429 127.138 91.6079 127.387 91.3789H86.1309C86.3839 91.6289 86.6398 91.8669 86.8998 92.0859H126.661Z" fill="#85D5F6"/>
<path d="M68.3021 92.0859C68.3201 91.9389 68.3621 91.8149 68.4421 91.7319C68.5981 91.8579 68.7561 91.9719 68.9141 92.0859H84.3701C84.3561 91.9719 84.3461 91.8649 84.3201 91.7319C84.3201 91.8519 84.3681 91.9679 84.4301 92.0859H85.7631C85.7631 91.8339 85.7631 91.5919 85.7631 91.3789H56.3931C56.7071 91.6599 57.0151 91.9009 57.3101 92.0859H68.3021Z" fill="#85D5F6"/>
<path d="M86.9012 92.0859C86.6402 91.8679 86.3841 91.6289 86.1321 91.3789H85.7642C85.7642 91.5919 85.7642 91.8329 85.7642 92.0859H86.9012Z" fill="#85D5F6"/>
<path d="M47.3491 92.0859C47.3811 91.8569 47.4101 91.6179 47.4381 91.3789H43.3511C43.4481 91.6159 43.5381 91.8569 43.6251 92.0859H47.3491Z" fill="#85D5F6"/>
<path d="M137.087 83.775H137.978C137.876 83.556 137.782 83.326 137.722 83.074C137.521 83.314 137.307 83.548 137.087 83.775Z" fill="#85D5F6"/>
<path d="M137.087 83.7751C137.307 83.5481 137.521 83.3131 137.722 83.0741C137.782 83.3261 137.875 83.5561 137.978 83.7751H146.78V83.0701H0V83.7751H137.087Z" fill="#85D5F6"/>
<path d="M146.779 75.261H0V75.967H146.779V75.261Z" fill="#85D5F6"/>
<path d="M146.779 67.4531H0V68.1621H146.779V67.4531Z" fill="#85D5F6"/>
<path d="M146.779 59.6431H0V60.3521H146.779V59.6431Z" fill="#85D5F6"/>
<path d="M146.779 51.834H0V52.543H146.779V51.834Z" fill="#85D5F6"/>
<path d="M146.779 44.0249H0V44.7329H146.779V44.0249Z" fill="#85D5F6"/>
<path d="M146.779 36.217H0V36.924H146.779V36.217Z" fill="#85D5F6"/>
<path d="M146.779 28.4089H0V29.1159H146.779V28.4089Z" fill="#85D5F6"/>
<path d="M146.779 20.5991H0V21.3061H146.779V20.5991Z" fill="#85D5F6"/>
<path d="M146.779 12.791H0V13.498H146.779V12.791Z" fill="#85D5F6"/>
<path d="M146.779 4.98193H0V5.68893H146.779V4.98193Z" fill="#85D5F6"/>
<path d="M3.21683 0H2.50781V95.649C2.73981 95.598 2.97683 95.533 3.21683 95.459V0Z" fill="#85D5F6"/>
<path d="M11.0248 95.279V0H10.3188V96.035C10.6138 95.888 10.8398 95.615 11.0248 95.279Z" fill="#85D5F6"/>
<path d="M18.832 0.00195312H18.125V92.794C18.361 92.718 18.598 92.6419 18.832 92.5679V0.00195312Z" fill="#85D5F6"/>
<path d="M26.6441 90.271V0.000976562H25.9351V90.496C26.1531 90.426 26.3711 90.365 26.5881 90.292C26.6071 90.28 26.6241 90.28 26.6441 90.271Z" fill="#85D5F6"/>
<path d="M34.4521 0H33.7432V90.599C33.9992 90.925 34.2341 91.261 34.4521 91.612V0Z" fill="#85D5F6"/>
<path d="M42.2592 0H41.5532V89.041C41.8262 89.172 42.0582 89.343 42.2592 89.542V0Z" fill="#85D5F6"/>
<path d="M50.0678 0.00195312H49.3618V89.3699C49.6068 89.7989 49.8138 90.3699 50.0678 90.8479V0.00195312Z" fill="#85D5F6"/>
<path d="M57.8769 0H57.1699V91.997C57.4149 92.162 57.6509 92.286 57.8769 92.364V0Z" fill="#85D5F6"/>
<path d="M65.686 0.00195312H64.978V94.734C65.214 94.814 65.45 94.89 65.686 94.965V0.00195312Z" fill="#85D5F6"/>
<path d="M73.4951 0H72.7891V94.029C73.0221 94.103 73.2571 94.171 73.4951 94.231V0Z" fill="#85D5F6"/>
<path d="M81.3032 93.1409V0.00195312H80.5962V93.057C80.8172 93.057 81.0552 93.0909 81.3032 93.1409Z" fill="#85D5F6"/>
<path d="M89.1132 93.046V0H88.4072V92.953C88.6322 93.018 88.8682 93.049 89.1132 93.046Z" fill="#85D5F6"/>
<path d="M97.4199 0H96.7119V93.88C96.9369 94.144 97.1689 94.409 97.4199 94.672V0Z" fill="#85D5F6"/>
<path d="M105.228 0.00195312H104.522V96.343C104.755 96.469 104.992 96.586 105.228 96.686V0.00195312Z" fill="#85D5F6"/>
<path d="M112.465 93.899C112.655 93.803 112.846 93.719 113.037 93.64V0H112.33V97.439C112.374 97.462 112.418 97.483 112.465 97.505C112.465 96.065 112.465 94.62 112.465 93.899Z" fill="#85D5F6"/>
<path d="M120.846 0H120.141V94.17C120.374 94.257 120.613 94.345 120.846 94.438V0Z" fill="#85D5F6"/>
<path d="M128.655 0H127.945V90.88C128.18 90.68 128.414 90.484 128.655 90.292V0Z" fill="#85D5F6"/>
<path d="M136.463 0.00195312H135.756V85.031C135.998 84.824 136.236 84.611 136.463 84.393V0.00195312Z" fill="#85D5F6"/>
<path d="M144.273 0H143.565V90.068C143.802 90.002 144.039 89.935 144.273 89.868V0Z" fill="#85D5F6"/>
</svg>
