<svg width="113" height="136" viewBox="0 0 113 136" fill="none" xmlns="http://www.w3.org/2000/svg">
<path d="M98.247 4.56107C96.263 4.84507 94.278 4.56106 92.293 5.12906C87.757 5.97906 83.222 5.12907 78.686 5.69507C78.119 5.69507 77.552 6.82907 76.985 6.82907C74.15 6.82907 71.881 8.24705 69.33 9.09705C67.913 9.66405 66.779 11.0811 65.078 11.6481C63.66 12.2161 62.809 14.4841 60.826 14.7661C58.842 15.0511 56.857 14.4841 54.872 15.0511C52.038 15.6171 49.769 15.3341 47.218 15.6171C46.651 15.6171 46.085 16.184 45.517 16.468C44.1 16.468 42.682 16.1841 41.265 16.7511C39.564 17.3191 38.146 16.7511 37.012 17.6021C29.925 22.1391 22.838 23.5551 14.9 22.1391C13.199 21.8541 11.498 21.5701 9.797 21.5701C9.23 21.5701 8.663 21.0041 8.096 20.7201C4.762 20.2851 2.972 15.9361 0 17.0041L14.033 135.1L14.178 135.07L93.757 114.137L94.671 108.261L110.814 76.8011L100.541 3.76007C100.345 3.74907 100.147 3.73406 99.949 3.71106C99.382 3.71106 98.814 4.27907 98.247 4.56107Z" fill="#87766A"/>
<path d="M112.889 73.201L89.9189 115.352L106.757 109.218L112.889 73.201Z" fill="#87766A"/>
<path d="M99.949 0.026001C99.382 0.026001 98.815 0.592007 98.248 0.876007C96.264 1.16001 94.279 0.875993 92.294 1.44299C87.758 2.29399 83.223 1.44301 78.687 2.01001C78.12 2.01001 77.553 3.14401 76.986 3.14401C74.151 3.14401 71.882 4.56099 69.331 5.41299C67.914 5.97899 66.78 7.39699 65.079 7.96399C63.661 8.53099 62.81 10.799 60.827 11.082C58.843 11.366 56.858 10.798 54.873 11.366C52.039 11.932 49.77 11.648 47.219 11.932C46.652 11.932 46.086 12.499 45.518 12.783C44.101 12.783 42.683 12.499 41.266 13.067C39.565 13.633 38.147 13.067 37.013 13.917C29.926 18.454 22.839 19.87 14.901 18.454C13.2 18.17 11.499 17.886 9.79798 17.886C9.23098 17.886 8.66398 17.32 8.09698 17.036C5.47098 16.693 2.56798 16.535 0.000976562 17.006L16.105 131.505L16.25 131.472L91.43 115.025C94.851 114.274 95.829 110.539 95.829 110.539L96.745 104.664L112.888 73.203L102.593 0C101.747 0.118 100.867 0.128001 99.949 0.026001Z" fill="#5A8BA1"/>
<path d="M112.889 73.201C112.889 73.201 95.9368 94.1351 87.6348 95.9501C87.6348 95.9501 96.9318 106.636 95.8248 110.558L112.889 73.201Z" fill="#477182"/>
</svg>
