<svg width="142" height="192" viewBox="0 0 142 192" fill="none" xmlns="http://www.w3.org/2000/svg">
<path d="M135.518 0.00402832C135.913 1.32603 135.952 2.70503 135.454 4.04303C137.186 4.64703 138.432 6.30103 138.432 8.25303C138.432 10.715 136.451 12.71 134.004 12.71C131.558 12.71 129.576 10.715 129.576 8.25303C129.576 6.28803 130.837 4.62403 132.59 4.02803C132.438 2.68103 132.373 1.33903 132.318 0.00502777H123.367C123.627 1.18703 123.676 2.48103 123.468 3.87903C125.508 4.27603 127.046 6.08203 127.046 8.25403C127.046 10.716 125.063 12.711 122.617 12.711C120.171 12.711 118.187 10.716 118.187 8.25403C118.187 6.67903 118.998 5.30003 120.221 4.50703C119.986 3.49203 120.003 2.17003 120.275 1.20403C120.243 0.804033 120.221 0.402027 120.208 0.00602722H114.087C113.766 1.38003 113.363 2.70303 112.815 3.90103C114.803 4.34003 116.292 6.12103 116.292 8.25503C116.292 10.717 114.309 12.712 111.863 12.712C109.418 12.712 107.434 10.717 107.434 8.25503C107.434 6.30903 108.673 4.65803 110.4 4.04803C110.413 2.72203 110.533 1.34903 110.667 0.00602722H102.054C101.951 1.39303 101.82 2.76803 101.379 3.96503C103.242 4.49103 104.609 6.21103 104.609 8.25503C104.609 10.717 102.628 12.712 100.182 12.712C97.7352 12.712 95.7522 10.717 95.7522 8.25503C95.7522 6.44703 96.8232 4.89703 98.3592 4.19703C98.1892 3.73503 98.0282 3.28303 97.8702 2.96503C97.7872 2.05003 97.7892 1.05003 97.8292 0.00702667H90.3302C90.2672 1.29103 90.0282 2.62303 89.5892 3.91003C91.5632 4.35903 93.0392 6.13203 93.0392 8.25603C93.0392 10.718 91.0552 12.713 88.6102 12.713C86.1642 12.713 84.1812 10.718 84.1812 8.25603C84.1812 6.73903 84.9322 5.40203 86.0822 4.59703C85.8262 3.06703 85.7222 1.53703 85.6822 0.00802612H75.2712C75.5962 1.30703 75.8152 2.63303 75.8992 3.99703C76.3182 3.86703 76.7622 3.79603 77.2222 3.79603C79.6672 3.79603 81.6482 5.79303 81.6482 8.25603C81.6482 10.718 79.6672 12.713 77.2222 12.713C74.7732 12.713 72.7922 10.718 72.7922 8.25603C72.7922 7.10503 73.2292 6.05903 73.9392 5.26703C73.3692 4.78303 72.8862 4.26303 72.8862 3.55103C72.9702 2.37903 72.9052 1.18303 72.7272 0.00802612H67.0982C66.4942 1.22403 65.9942 2.48903 65.6072 3.79903C65.6092 3.79903 65.6092 3.79703 65.6112 3.79703C68.0572 3.79703 70.0402 5.79403 70.0402 8.25703C70.0402 10.719 68.0572 12.714 65.6112 12.714C63.1652 12.714 61.1822 10.719 61.1822 8.25703C61.1822 6.58203 62.0992 5.12503 63.4532 4.36303C63.1252 3.03103 62.8852 1.68603 62.6432 0.345032C62.5922 0.231032 62.5442 0.119026 62.4932 0.00802612H57.5252C57.1122 1.42203 56.5282 2.79403 55.7222 4.06403C57.4292 4.68403 58.6502 6.32303 58.6502 8.25603C58.6502 10.718 56.6682 12.713 54.2222 12.713C51.7762 12.713 49.7932 10.718 49.7932 8.25603C49.7932 6.10303 51.3072 4.30803 53.3222 3.89003C53.2462 2.56003 52.7342 1.47703 50.8272 1.79703C50.7682 1.38203 50.7322 0.968031 50.7092 0.555031C49.7312 2.37703 48.4172 3.98303 46.8772 5.41003C47.5122 6.18203 47.8952 7.17403 47.8952 8.25603C47.8952 10.718 45.9122 12.713 43.4652 12.713C41.0202 12.713 39.0372 10.718 39.0372 8.25603C39.0372 5.79303 41.0202 3.79603 43.4652 3.79603C44.3892 3.79603 45.2462 4.08203 45.9552 4.56803C45.9362 3.07203 45.6952 1.45103 45.8742 0.00702667H42.7582C40.2362 2.02803 37.8812 4.29303 34.9262 5.11103C35.7202 5.91903 36.2122 7.02803 36.2122 8.25503C36.2122 10.717 34.2302 12.712 31.7852 12.712C29.3392 12.712 27.3562 10.717 27.3562 8.25503C27.3562 5.79203 29.3392 3.79503 31.7852 3.79503C31.9542 3.79503 32.1212 3.80703 32.2852 3.82603C33.0862 2.58403 33.4332 1.30803 33.5432 0.00702667H23.6762C23.0092 1.36903 22.3282 2.69403 21.3482 3.94803C23.2432 4.45303 24.6422 6.18803 24.6422 8.25603C24.6422 10.718 22.6592 12.713 20.2152 12.713C17.7672 12.713 15.7852 10.718 15.7852 8.25603C15.7852 6.08803 17.3192 4.28703 19.3532 3.88103C19.4622 2.59003 19.6242 1.29803 19.7472 0.00702667H8.21121C8.16121 1.28103 8.21121 2.57303 8.31321 3.82603C8.48221 3.80703 8.65221 3.79503 8.82521 3.79503C11.2712 3.79503 13.2542 5.79203 13.2542 8.25503C13.2542 10.717 11.2712 12.712 8.82521 12.712C6.37921 12.712 4.39621 10.717 4.39621 8.25503C4.39621 6.25403 5.70521 4.55903 7.50921 3.99603C6.67621 2.73503 5.97421 1.38103 5.31721 0.00702667H1.74121V191.783H89.4632C91.5362 189.416 93.5312 187.019 95.4342 184.621C95.4342 186.663 97.4602 185.981 98.1352 187.34C101.511 181.223 103.537 185.981 106.914 188.701C107.589 183.262 110.966 180.543 115.691 181.903C115.691 179.183 115.691 175.784 116.366 173.066C121.768 176.466 128.521 176.466 131.896 182.583C133.921 180.543 133.921 178.505 137.298 179.183C139.324 179.183 139.324 182.583 140.674 184.622C140.009 182.277 140.656 180.429 141.564 178.587L141.565 0.00502777L135.518 0.00402832Z" fill="#52371B"/>
<path d="M133.777 0.0039978C134.171 1.318 134.211 2.686 133.713 4.015C135.446 4.617 136.692 6.259 136.692 8.196C136.692 10.642 134.709 12.625 132.264 12.625C129.817 12.625 127.833 10.642 127.833 8.196C127.833 6.244 129.095 4.593 130.848 4.002C130.695 2.661 130.631 1.329 130.578 0.00299835H121.624C121.884 1.178 121.931 2.463 121.724 3.849C123.762 4.245 125.302 6.041 125.302 8.195C125.302 10.641 123.32 12.624 120.873 12.624C118.427 12.624 116.443 10.641 116.443 8.195C116.443 6.633 117.256 5.26 118.479 4.473C118.242 3.465 118.26 2.152 118.531 1.194C118.498 0.796 118.477 0.397998 118.465 0.00299835H112.345C112.026 1.368 111.621 2.684 111.072 3.871C113.059 4.308 114.549 6.076 114.549 8.195C114.549 10.641 112.566 12.624 110.118 12.624C107.674 12.624 105.689 10.641 105.689 8.195C105.689 6.263 106.93 4.622 108.657 4.018C108.669 2.7 108.789 1.337 108.924 0.00299835H100.312C100.209 1.38 100.076 2.748 99.636 3.935C101.499 4.456 102.866 6.166 102.866 8.196C102.866 10.642 100.882 12.625 98.438 12.625C95.99 12.625 94.008 10.642 94.008 8.196C94.008 6.4 95.079 4.859 96.615 4.165C96.445 3.706 96.285 3.259 96.128 2.941C96.044 2.032 96.045 1.038 96.085 0.00299835H88.586C88.523 1.279 88.283 2.602 87.844 3.878C89.819 4.326 91.295 6.086 91.295 8.195C91.295 10.641 89.311 12.624 86.866 12.624C84.419 12.624 82.436 10.641 82.436 8.195C82.436 6.689 83.189 5.36 84.337 4.559C84.083 3.04 83.977 1.522 83.94 0.0019989H73.528C73.85 1.295 74.071 2.61 74.155 3.966C74.572 3.836 75.017 3.765 75.477 3.765C77.922 3.765 79.905 5.748 79.905 8.195C79.905 10.641 77.922 12.624 75.477 12.624C73.031 12.624 71.047 10.641 71.047 8.195C71.047 7.051 71.485 6.013 72.195 5.226C71.625 4.746 71.141 4.229 71.141 3.522C71.225 2.356 71.162 1.169 70.981 0.0019989H65.353C64.749 1.212 64.247 2.465 63.861 3.767C63.863 3.767 63.865 3.765 63.865 3.765C66.311 3.765 68.294 5.748 68.294 8.195C68.294 10.641 66.311 12.624 63.865 12.624C61.418 12.624 59.435 10.641 59.435 8.195C59.435 6.533 60.353 5.087 61.706 4.329C61.379 3.006 61.138 1.669 60.895 0.335999C60.845 0.225999 60.797 0.112999 60.746 0.0019989H55.778C55.366 1.405 54.78 2.77 53.975 4.031C55.681 4.647 56.904 6.275 56.904 8.194C56.904 10.64 54.921 12.623 52.475 12.623C50.029 12.623 48.046 10.64 48.046 8.194C48.046 6.057 49.56 4.273 51.575 3.857C51.498 2.536 50.986 1.462 49.081 1.777C49.023 1.366 48.986 0.953998 48.963 0.544998C47.985 2.355 46.672 3.949 45.13 5.368C45.768 6.135 46.15 7.118 46.15 8.194C46.15 10.64 44.167 12.623 41.719 12.623C39.274 12.623 37.291 10.64 37.291 8.194C37.291 5.747 39.274 3.764 41.719 3.764C42.643 3.764 43.499 4.049 44.208 4.531C44.19 3.046 43.948 1.433 44.128 0.000999451H41.011C38.489 2.007 36.134 4.258 33.18 5.072C33.974 5.873 34.466 6.976 34.466 8.193C34.466 10.639 32.483 12.622 30.038 12.622C27.592 12.622 25.609 10.639 25.609 8.193C25.609 5.746 27.592 3.763 30.038 3.763C30.207 3.763 30.374 3.774 30.538 3.794C31.339 2.562 31.686 1.293 31.797 0H21.929C21.262 1.353 20.581 2.669 19.601 3.915C21.497 4.418 22.894 6.139 22.894 8.192C22.894 10.638 20.911 12.621 18.467 12.621C16.019 12.621 14.037 10.638 14.037 8.192C14.037 6.041 15.572 4.251 17.606 3.848C17.717 2.566 17.878 1.284 17.999 0H6.471C6.42 1.267 6.471 2.549 6.573 3.796C6.741 3.776 6.912 3.763 7.085 3.763C9.531 3.763 11.513 5.746 11.513 8.193C11.513 10.639 9.531 12.622 7.085 12.622C4.638 12.622 2.656 10.639 2.656 8.193C2.656 6.207 3.965 4.523 5.768 3.963C4.935 2.711 4.233 1.366 3.576 0.000999451H0V190.489H89.463C91.536 188.139 93.531 185.759 95.434 183.378C95.434 185.404 97.46 184.728 98.135 186.08C101.511 180.003 103.537 184.728 106.914 187.431C107.589 182.028 110.966 179.327 115.691 180.678C115.691 177.977 115.691 174.601 116.366 171.9C121.768 175.277 128.521 175.277 131.896 181.354C133.921 179.328 133.921 177.303 137.298 177.977C138.786 177.977 139.181 179.799 139.822 181.57V0.0039978H133.777Z" fill="#EAE3DD"/>
</svg>
