<svg width="106" height="113" viewBox="0 0 106 113" fill="none" xmlns="http://www.w3.org/2000/svg">
<path d="M90.5029 99.478C90.5029 99.478 101.317 84.471 104.665 49.499C105.973 72.028 105.885 95.938 101.818 112.212C101.818 112.212 69.721 110.553 39.856 98.681C51.313 101.565 67.6199 102.822 90.5029 99.478Z" fill="#87766A"/>
<path d="M30.646 71.19L0 51.86C14.145 23.574 10.371 0.944 10.371 0.944L104.193 0C111.262 70.721 90.521 99.478 90.521 99.478C29.229 108.437 15.087 84.391 15.087 84.391C15.087 69.778 30.646 71.19 30.646 71.19Z" fill="#8E6D63"/>
<path d="M30.646 71.1899C30.646 71.1899 15.087 69.7789 15.087 84.3899C11.787 81.0909 0 51.8599 0 51.8599L30.646 71.1899Z" fill="#694F47"/>
</svg>
